<svg xmlns="http://www.w3.org/2000/svg" viewBox="0 0 1000 1000" role="img" aria-label="portrait glyph"><style>path{fill:none;stroke:#0030DE;stroke-width:80;stroke-linecap:round;stroke-linejoin:round}@media(prefers-color-scheme:dark){path{stroke:#ffffff}}</style><path d="M487.8,83.6 C 482.4,84.1 477.1,84.7 471.9,85.7 466.8,86.6 461.7,87.8 456.9,89.5 452,91.1 447.3,93.1 442.7,95.5 438,97.8 433.5,100.6 429.1,103.6 424.6,106.7 420.2,110.2 415.9,113.8 411.5,117.5 407.2,121.6 403,125.7 398.7,129.9 394.6,134.3 390.5,138.7 386.3,143.1 382.3,147.7 378.3,152.1 374.2,156.6 370.1,161.1 365.9,165.5 361.8,169.9 357.6,174.3 353.4,178.7 349.2,183 344.9,187.4 340.7,191.7 336.5,196.1 332.3,200.4 328.1,204.9 324,209.3 319.9,213.7 316,218.3 312.1,222.9 308.3,227.5 304.6,232.3 300.9,237.1 297.4,242 294,246.9 290.6,251.9 287.3,257 284.1,262.2 280.9,267.3 277.9,272.6 275,277.9 272.1,283.2 269.3,288.6 266.6,294.1 264,299.6 261.4,305.1 259,310.7 256.5,316.3 254.2,321.9 252,327.6 249.8,333.3 247.7,339 245.6,344.8 243.6,350.5 241.6,356.3 239.8,362.1 237.9,367.8 236.1,373.7 234.4,379.5 232.7,385.4 231.1,391.2 229.7,397.2 228.2,403.1 226.8,409 225.5,415 224.3,420.9 223.1,426.9 222,432.9 220.9,438.9 219.9,444.9 219.1,450.9 218.2,457 217.5,463 216.8,469.1 216.1,475.1 215.5,481.2 214.9,487.3 214.2,493.4 213.7,499.4 213.1,505.5 212.5,511.6 211.9,517.7 211.2,523.7 210.5,529.8 209.9,535.8 209.1,541.9 208.3,547.9 207.5,553.9 206.6,559.9 205.7,565.9 204.6,571.9 203.5,577.9 202.4,583.8 201.2,589.7 200.1,595.7 199,601.6 197.8,607.5 196.7,613.5 195.6,619.4 194.4,625.3 193.3,631.3 192.1,637.2 190.9,643.1 189.8,649.1 188.7,655 187.7,660.9 186.7,666.9 185.7,672.8 184.7,678.8 183.9,684.8 183.1,690.8 182.3,696.7 181.6,702.7 181,708.8 180.4,714.8 180,720.8 179.5,726.9 179.3,733 179,739.1 178.8,745.2 178.7,751.3 178.5,757.4 178.3,763.5 178.1,769.7 177.9,775.8 177.8,781.9 177.6,788 177.4,794.1 177.2,800.3 177,806.4 176.9,812.5 176.7,818.6 176.5,824.7 176.3,830.9 176.1,837 175.9,843.1 175.8,849.2 175.6,855.3 175.4,861.5 175.2,867.6 175,873.7 174.9,879.8 174.7,886 174.5,892.1 174.3,898.2 174.1,904.3 173.9,910.4 173.5,916.7 173.6,922.7 173.7,928.4 173.9,934 174.7,939.4 175.4,944.5 176.4,949.5 177.9,954.1 179.3,958.6 181.1,962.9 183.2,966.8 185.3,970.6 189.7,973 190.6,977.4 191.8,983.4 182.9,996.5 185.8,1000 188.3,1003.2 198,1000 204.1,1000 210.2,1000 216.4,1000 222.5,1000 228.6,1000 234.7,1000 240.9,1000 247,1000 253.1,1000 259.2,1000 265.4,1000 271.5,1000 277.6,1000 283.7,1000 289.8,1000 296,1000 302.1,1000 308.2,1000 314.3,1000 320.5,1000 326.6,1000 332.7,1000 338.8,1000 345,1000 351.1,1000 357.2,1000 363.3,1000 369.4,1000 375.6,1000 381.7,1000 387.8,1000 393.9,1000 400.1,1000 406.2,1000 412.3,1000 418.4,1000 424.5,1000 430.7,1000 436.8,1000 442.9,1000 449,1000 455.2,1000 461.3,1000 467.4,1000 473.5,1000 479.7,1000 485.8,1000 491.9,1000 498,1000 504.1,1000 510.3,1000 516.4,1000 522.5,1000 528.6,1000 534.8,1000 540.9,1000 547,1000 553.1,1000 559.2,1000 565.4,1000 571.5,1000 577.6,1000 583.7,1000 589.9,1000 596,1000 602.1,1000 608.2,1000 614.4,1000 620.5,1000 626.6,1000 632.7,1000 638.8,1000 645,1000 651.1,1000 657.2,1000 663.3,1000 669.5,1000 675.6,1000 681.7,1000 687.8,1000 694,1000 700.1,1000 706.2,1000 712.3,1000 718.4,1000 724.6,1000 730.7,1000 736.8,1000 742.9,1000 749.1,1000 755.2,1000 761.3,1000 767.4,1000 773.5,1000 779.7,1000 785.8,1000 791.9,1000 798,1000 804.2,1000 810.3,1000 816.4,1000 822.5,1000 828.7,1000 834.8,1000 844.3,1003.2 847,1000 850.1,996.4 841.5,982.9 842.9,976.9 844,972.3 848.6,970 850.9,966.1 853.2,962.2 855.2,957.8 856.8,953.3 858.5,948.7 859.8,943.7 860.8,938.5 861.9,933.1 862.4,927.4 862.8,921.6 863.2,915.7 863.2,909.4 863.4,903.3 863.5,897.2 863.7,891 863.9,884.9 864.1,878.8 864.3,872.7 864.4,866.6 864.6,860.4 864.8,854.3 865,848.2 865.2,842.1 865.4,836 865.5,829.8 865.7,823.7 865.9,817.6 866.1,811.5 866.3,805.4 866.4,799.2 866.6,793.1 866.8,787 867,780.9 867.2,774.8 867.4,768.6 867.5,762.5 867.7,756.4 867.9,750.3 868.1,744.2 868.3,738 868.5,731.9 868.6,725.8 868.8,719.7 869,713.6 869.2,707.4 869.4,701.3 869.5,695.2 869.7,689.1 869.9,683 870.1,676.8 870.3,670.7 870.5,664.6 870.6,658.5 870.8,652.4 871,646.2 871.2,640.1 871.4,634 871.5,627.9 871.7,621.8 871.9,615.6 872.1,609.5 872.3,603.4 872.5,597.3 872.6,591.2 872.8,585 873,578.9 873.2,572.8 873.4,566.7 873.5,560.6 873.7,554.4 873.9,548.3 874.1,542.2 874.3,536.1 874.5,530 874.6,523.8 874.8,517.7 875,511.6 875.2,505.5 875.4,499.4 875.6,493.2 875.9,487.1 875.9,481 876,475 876,468.9 875.6,463 875.3,457.1 874.7,451.2 873.9,445.4 873.2,439.7 872.2,433.9 871,428.3 869.8,422.7 868.3,417.1 866.7,411.6 865.1,406 863.3,400.6 861.3,395.2 859.3,389.7 857.1,384.4 854.7,379.1 852.3,373.8 849.7,368.5 846.9,363.4 844.1,358.2 840.9,353.2 837.7,348.2 834.4,343.1 830.8,338.2 827.4,333.3 823.9,328.3 820.3,323.3 816.9,318.3 813.5,313.2 810.1,308.1 806.7,303.1 803.3,298 800,292.9 796.6,287.8 793.2,282.8 789.9,277.7 786.4,272.6 782.9,267.6 779.4,262.7 775.8,257.8 772.2,252.9 768.5,248.1 764.7,243.4 761,238.6 757.1,234 753.2,229.4 749.3,224.8 745.5,220.1 741.5,215.6 737.6,211 733.5,206.5 729.5,202 725.5,197.5 721.3,193 717.7,188.4 714.3,184.1 711.2,179.7 708.4,175.1 705.7,170.7 703.6,166.1 701,161.6 698.5,157.2 695.9,152.8 693.3,148.5 690.6,144.2 687.9,140 685.2,135.8 682.5,131.6 679.9,127.4 677.1,123.3 674.3,119.3 671.5,115.3 668.6,111.6 665.7,108.1 662.7,104.6 659.6,101.6 656.6,98.8 653.6,96.1 650.3,94 647,91.9 643.5,90.3 639.6,89 635.4,87.5 630.5,86.5 625.6,85.8 620.3,85 614.5,84.8 608.9,84.4 603.2,84.1 597.5,83.9 591.8,83.7 586,83.5 580.3,83.4 574.5,83.4 568.7,83.3 562.9,83.4 557,83.4 551.2,83.4 545.4,83.4 539.6,83.4 533.8,83.3 528,83.3 522.2,83.2 516.3,83.2 510.5,82.9 504.7,83 499,83.1 493.4,83.2 487.8,83.6 Z"/><path d="M322.3,410.7 C 325.5,407 328.4,403 331.9,399.6 335.2,396.2 338.6,392.7 342.7,390.3 346.7,387.7 351.6,386.2 356.2,384.6 360.7,383.1 365.3,381.4 370,380.8 374.8,380.2 379.8,381 384.6,381 389.5,381.1 394.4,381 399.3,381.2 404.1,381.5 408.9,382.2 413.8,382.8 418.6,383.3 423.5,383.9 428.3,384.5 433.2,385 438,385.6 442.8,386.2"/><path d="M679.7,409.4 C 675.2,405.9 670.8,402.1 666.2,398.7 661.5,395.3 657.1,391.6 652,389.1 646.9,386.6 641,385.4 635.5,383.7 630,382 624.6,379.6 619,378.9 613.4,378.1 607.5,379.1 601.7,379.3 595.9,379.4 590.2,379.3 584.4,379.7 578.7,380 572.9,380.6 567.2,381.2 561.5,381.7 555.7,382.5 550,383.2 544.3,383.9 538.6,384.6 532.8,385.3"/><path d="M365.2,460 C 367.8,460.7 370.8,460.8 373.6,461.1 376.4,461.3 379.3,461.5 382.1,461.5 384.9,461.5 387.7,461.4 390.6,461.3 393.4,461.2 396.2,461.1 399,460.9 401.8,460.8 404.6,460.5 407.5,460.3 410.3,460.2 413.1,460 415.9,459.9 418.7,459.8 421.6,459.6 424.4,459.6 427.2,459.6 431.2,460.8 432.8,459.9 433.9,459.3 434.8,457.8 434.6,456.7 434.3,455.1 430.2,453.3 427.8,451.7 425.5,450 423.2,448.3 420.7,447.1 418.2,445.9 415.4,445.2 412.7,444.3 410,443.5 407.4,442.4 404.6,441.9 401.9,441.4 399,441.4 396.2,441.4 393.4,441.4 390.6,441.4 387.8,441.8 385,442.1 382.2,442.8 379.6,443.7 376.9,444.5 374.3,445.6 371.8,446.9 369.3,448.2 366.9,449.7 364.7,451.4 362.5,453.2 358.3,455.8 358.6,457.2 358.8,458.6 362.8,459.4 365.2,460 Z"/><path d="M631.1,459.2 C 634,458.7 639.4,458 639.6,456.8 639.8,455.5 634.7,453.3 632.2,451.7 629.6,450.1 627,448.5 624.4,447.2 621.7,445.8 619,444.5 616.1,443.6 613.3,442.6 610.3,442.2 607.3,441.7 604.4,441.3 601.4,441 598.4,440.9 595.4,440.8 592.3,440.9 589.4,441.3 586.4,441.8 583.5,442.7 580.7,443.5 577.8,444.3 574.9,445.1 572.1,446.3 569.4,447.5 566.8,449.1 564.2,450.7 561.7,452.3 557,454.3 556.8,455.8 556.7,456.7 557.8,457.9 559,458.4 560.9,459.2 565,458.1 568,458 571,458 574,458 577,458.1 580,458.2 583.1,458.3 586.1,458.4 589.1,458.6 592.1,458.8 595.1,459 598.1,459.1 601.1,459.2 604.1,459.4 607.1,459.5 610.1,459.6 613.1,459.7 616.1,459.7 619.1,459.9 622.1,459.8 625.1,459.7 628.2,459.7 631.1,459.2 Z"/><path d="M486.9,443.9 C 486.4,451.1 486,458.2 485.5,465.4 485,472.5 484.3,479.6 483.7,486.8 483.2,493.9 482.6,501 482,508.2 481.5,515.3 480.9,522.4 480.3,529.6 479.7,536.7 479.1,543.8 478.6,551 478.2,558.1 477.9,565.3 477.5,572.4"/><path d="M485.1,662.1 C 480.3,662 475.5,659.7 470.6,658.8 465.7,657.8 460.9,656.6 455.9,656.2 451,655.8 446,656.2 441,656.4 436,656.6 431,657 426.1,657.4 421.1,657.8 415.2,657.2 411.2,658.7 408,659.9 404,661.7 403.5,664.2 402.9,667.4 408.7,672.7 411.6,676.8 414.4,680.9 417.3,685 420.5,688.8 423.8,692.6 427.2,696.2 430.9,699.5 434.5,702.9 438.3,706.2 442.4,708.8 446.6,711.5 451.2,713.7 455.8,715.4 460.4,717.1 465.3,718 470.2,719 475,720 480,721.1 485,721.3 489.9,721.5 494.9,720.6 499.8,720.1 504.8,719.7 509.9,719.9 514.7,718.8 519.5,717.7 524.1,715.4 528.7,713.6 533.3,711.7 538,710 542.4,707.7 546.7,705.3 550.8,702.3 554.8,699.3 558.8,696.4 562.7,693.3 566.5,690.1 570.3,686.9 574,683.5 577.5,680 580.9,676.4 588.1,671.1 587.3,668.7 586.6,666.4 578.6,666.3 574,665.3 569.2,664.3 564.2,663.6 559.3,662.9 554.3,662.1 549.4,661.4 544.4,660.8 539.5,660.2 534.5,659.8 529.6,659.3 524.6,658.8 519.6,657.8 514.7,657.9 509.8,658 504.8,659.1 499.9,659.8 495,660.6 490,662.3 485.1,662.1 Z"/></svg>
