<svg xmlns="http://www.w3.org/2000/svg" viewBox="0 0 1000 1000" role="img" aria-label="portrait glyph"><style>path{fill:none;stroke:#ffffff;stroke-width:80;stroke-linecap:round;stroke-linejoin:round}</style><path d="M515.9,54.1 C 509.6,53.3 503.1,52.8 496.7,52.6 490.3,52.5 483.9,52.7 477.4,53.1 471,53.6 464.6,54.3 458.2,55.4 451.9,56.4 445.5,57.8 439.3,59.3 433,60.9 426.8,62.8 420.7,64.7 414.6,66.7 408.5,68.9 402.5,71.3 396.5,73.6 390.5,76.2 384.6,78.9 378.6,81.6 372.8,84.5 366.9,87.5 361.1,90.5 355.3,93.6 349.6,96.9 343.9,100.1 338.2,103.6 332.7,107.1 327.2,110.7 321.8,114.4 316.6,118.4 311.4,122.3 306.4,126.4 301.6,130.6 296.8,134.9 292.2,139.3 287.8,143.9 283.4,148.4 279.1,153.1 275,157.9 270.8,162.6 266.6,167.4 262.8,172.5 258.9,177.5 255.1,182.7 251.7,188 248.4,193.4 245.3,199 242.5,204.8 239.8,210.5 237.4,216.5 235.1,222.5 232.7,228.5 230.6,234.7 228.5,240.8 226.4,247 224.5,253.2 222.4,259.4 220.4,265.6 218.4,271.9 216.3,278 214.2,284.2 212,290.3 209.8,296.4 207.6,302.6 205.3,308.6 203,314.7 200.8,320.8 198.6,326.9 196.3,333 194,339.1 191.7,345.2 189.2,351.2 186.6,357.2 183.9,363.1 181.1,369.1 178.2,375 175.1,380.8 172.1,386.7 169.1,392.6 166.1,398.5 163.1,404.4 160.2,410.2 157.2,416.1 154.3,422.1 151.5,428 148.6,433.9 146,439.9 143.4,445.9 140.9,452 138.6,458.1 136.3,464.2 134.1,470.3 132.2,476.5 130.2,482.7 128.4,489 126.8,495.2 125.2,501.5 123.7,507.9 122.4,514.3 121.1,520.7 119.9,527.1 119,533.6 118.1,540.1 117.5,546.6 116.9,553.1 116.3,559.6 116.1,566.2 115.6,572.7 115.1,579.2 114.6,585.7 113.8,592.1 113,598.4 112.2,604.8 111,611 109.9,617.1 108.6,623.3 106.9,629.3 105.3,635.2 103.4,641.1 101.1,646.7 98.9,652.4 96.4,657.9 93.6,663.3 90.8,668.6 87.6,673.7 84.4,678.8 81.2,683.9 77.9,688.8 74.6,693.8 71.2,698.9 67.9,703.9 64.5,708.9 61.2,714 57.7,718.9 54.6,724.1 51.6,729.1 48.7,734.3 46.1,739.5 43.5,744.7 41.1,750.1 39.1,755.5 37,760.9 35.2,766.4 33.8,772.1 32.3,777.7 31.2,783.5 30.4,789.4 29.6,795.5 29.1,801.6 29,807.8 28.8,814.1 29.2,820.7 29.6,827.1 30,833.7 30.6,840.3 31.1,846.9 31.7,853.5 32.2,860.2 32.7,866.8 33.2,873.4 33.7,880 34.3,886.6 34.8,893.2 35.2,899.8 35.8,906.4 36.4,912.8 36.8,919.4 37.9,925.6 39,931.4 40.3,937.2 42.1,942.6 43.8,947.7 45.8,952.7 48.2,957.4 50.6,961.9 55.6,964.6 56.5,970 57.7,977.6 45.1,995.6 48.6,1000 51.3,1003.6 61.8,1000 68.4,1000 75.1,1000 81.7,1000 88.3,1000 94.9,1000 101.5,1000 108.2,1000 114.8,1000 121.4,1000 128,1000 134.6,1000 141.3,1000 147.9,1000 154.5,1000 161.1,1000 167.8,1000 174.4,1000 181,1000 187.6,1000 194.2,1000 200.9,1000 207.5,1000 214.1,1000 220.7,1000 227.4,1000 234,1000 240.6,1000 247.2,1000 253.8,1000 260.5,1000 267.1,1000 273.7,1000 280.3,1000 286.9,1000 293.6,1000 300.2,1000 306.8,1000 313.4,1000 320.1,1000 326.7,1000 333.3,1000 339.9,1000 346.5,1000 353.2,1000 359.8,1000 366.4,1000 373,1000 379.6,1000 386.3,1000 392.9,1000 399.5,1000 406.1,1000 412.8,1000 419.4,1000 426,1000 432.6,1000 439.2,1000 445.9,1000 452.5,1000 459.1,1000 465.7,1000 472.3,1000 479,1000 485.6,1000 492.2,1000 498.8,1000 505.5,1000 512.1,1000 518.7,1000 525.3,1000 531.9,1000 538.6,1000 545.2,1000 551.8,1000 558.4,1000 565,1000 571.7,1000 578.3,1000 584.9,1000 591.5,1000 598.2,1000 604.8,1000 611.4,1000 618,1000 624.6,1000 631.3,1000 637.9,1000 644.5,1000 651.1,1000 657.7,1000 664.4,1000 671,1000 677.6,1000 684.2,1000 690.9,1000 697.5,1000 704.1,1000 710.7,1000 717.3,1000 724,1000 730.6,1000 737.2,1000 743.8,1000 750.4,1000 757.1,1000 763.7,1000 770.3,1000 776.9,1000 783.6,1000 790.2,1000 796.8,1000 803.4,1000 810,1000 816.7,1000 823.3,1000 829.9,1000 836.5,1000 843.1,1000 849.8,1000 856.4,1000 863,1000 869.6,1000 876.3,1000 882.9,1000 889.5,1000 900.6,1003.4 902.7,1000 905.7,995.4 887.8,976.1 887.7,967.7 887.6,962.4 891.9,959.3 893.4,954.7 895,949.8 896.1,944.7 896.8,939.4 897.6,933.8 897.8,927.9 897.8,921.9 897.7,915.6 896.9,908.9 896.4,902.3 895.9,895.7 895.3,889.1 894.8,882.5 894.3,875.9 893.8,869.3 893.2,862.7 892.7,856.1 892.2,849.5 891.7,842.9 891.2,836.3 890.7,829.7 890.1,823.1 889.6,816.5 889.1,809.9 888.6,803.3 888.1,796.7 887.5,790.1 887,783.5 886.5,776.9 886,770.3 885.5,763.7 884.9,757.1 884.4,750.5 883.9,743.9 883.4,737.3 882.9,730.7 882.3,724.1 881.8,717.5 881.3,710.9 880.8,704.3 880.3,697.7 879.8,691.1 879.2,684.5 878.7,677.9 878.2,671.2 877.7,664.6 877.2,658 876.6,651.4 876.1,644.8 875.6,638.2 875.3,631.6 874.6,625 873.9,618.5 873,612.1 872,605.7 871,599.3 869.9,592.9 868.7,586.5 867.5,580.1 866.3,573.8 864.8,567.4 863.4,561.1 861.9,554.8 860.3,548.6 858.6,542.3 856.8,536.1 855,529.9 853.1,523.7 851.2,517.5 849.1,511.3 847,505.2 844.9,499 842.6,492.9 840.3,486.8 837.8,480.8 835.2,474.8 832.5,468.8 829.6,462.9 826.8,457 823.9,451.1 821.1,445.1 818.3,439.1 815.5,433.2 812.7,427.2 809.9,421.2 807.2,415.3 804.4,409.3 801.9,403.3 799.4,397.2 796.9,391.2 794.7,385.1 792.4,379 790.4,372.9 788.4,366.7 786.3,360.6 784.3,354.5 782.3,348.3 780.3,342.1 778.4,336 776.4,329.8 774.5,323.6 772.6,317.5 770.7,311.2 768.9,305 767.2,298.7 765.4,292.5 763.7,286.2 762,279.9 760.3,273.6 758.6,267.3 757,261 755.1,254.7 753.2,248.5 751.3,242.3 749.1,236.2 746.9,230.1 744.5,224 741.8,218.1 739.2,212.1 736.3,206.2 733.2,200.4 730.1,194.6 726.9,189 723.4,183.4 719.9,177.9 716.3,172.5 712.5,167.3 708.6,162.2 704.6,157.2 700.4,152.3 696.1,147.5 691.7,143 687.1,138.5 682.6,134 677.8,129.6 673,125.4 668.1,121.2 663,117.2 657.9,113.3 652.7,109.3 647.4,105.5 642,101.9 636.6,98.2 631.1,94.7 625.5,91.4 619.8,88.1 614,85 608.1,82.2 602.3,79.3 596.3,76.6 590.3,74.2 584.2,71.8 578.1,69.6 572,67.6 565.9,65.6 559.7,63.7 553.5,61.9 547.3,60.2 541.1,58.5 534.9,57.2 528.6,55.9 522.3,54.8 515.9,54.1 Z"/><path d="M310.5,399.7 C 315.3,396.3 319.9,392.4 325,389.4 330,386.3 335.1,383.5 340.6,381.5 346.1,379.5 352.1,378.4 357.9,377.4 363.6,376.5 369.5,375.7 375.3,375.7 381.2,375.8 387.1,377 393,377.6 398.9,378.2 404.8,378.5 410.7,379.4 416.6,380.3 422.3,381.7 428.1,382.8 433.9,384 439.7,385.2 445.5,386.4 451.3,387.6 457.1,388.9 463,390.1"/><path d="M698.8,397.3 C 695.3,393.7 692.2,389.3 688.2,386.5 684.2,383.7 679.5,382.1 674.9,380.4 670.2,378.7 665.2,377 660.2,376.6 655.3,376.1 650.3,377 645.3,377.5 640.3,378 635.3,378.8 630.3,379.5 625.3,380.3 620.3,380.9 615.4,381.8 610.4,382.8 605.5,384 600.6,385.1 595.7,386.2 590.8,387.3 585.9,388.4 580.9,389.5 576,390.6 571.1,391.7"/><path d="M366.7,457.7 C 369.6,459.9 372.8,462 376.1,463.6 379.4,465.2 383,466.4 386.6,467.2 390.1,468.1 393.8,468.4 397.5,468.8 401.1,469.2 404.8,469.6 408.5,469.6 412.2,469.5 415.9,468.9 419.5,468.5 423.2,468.2 426.9,467.8 430.6,467.4 434.2,467 437.9,466.4 441.6,466.2 445.3,466 451.4,467.6 452.6,466 453.6,464.8 452.5,461.7 451.4,459.6 449.9,456.9 446.2,454.3 443.6,451.7 441,449.1 438.6,446.2 435.7,444 432.8,441.7 429.4,440.2 426.2,438.3 423,436.4 420,434 416.6,432.8 413.1,431.6 409.3,431.4 405.7,431 402,430.5 398.4,429.9 394.7,430.1 391.1,430.2 387.3,430.9 383.8,431.8 380.3,432.8 376.7,433.9 373.5,435.6 370.3,437.3 367.1,439.5 364.5,442 362.1,444.3 358.4,447.5 358.7,450.1 358.9,452.8 363.8,455.4 366.7,457.7 Z"/><path d="M646.9,459.2 C 649.5,456.8 653.7,453.7 653.7,451 653.7,448.2 649.7,445 647.1,442.6 644.6,440.2 641.5,438.2 638.3,436.7 635.1,435.3 631.5,434.7 628.1,434 624.6,433.4 621,432.9 617.5,432.9 614,433 610.4,433.5 606.9,434.2 603.5,434.8 600,435.6 596.8,436.9 593.5,438.2 590.4,440.1 587.3,441.9 584.3,443.6 581.2,445.4 578.4,447.6 575.6,449.8 573.2,452.4 570.7,455 568.2,457.5 564.2,460.2 563.4,462.7 562.9,464.6 563.1,466.9 564.3,468.1 566,469.6 571.4,468.6 574.9,468.9 578.5,469.2 582,469.7 585.6,470 589.1,470.3 592.7,470.6 596.2,470.8 599.8,471 603.3,471.5 606.9,471.4 610.4,471.4 613.9,470.9 617.5,470.4 621,470 624.5,469.6 628,468.7 631.4,467.8 634.9,466.7 638,465.1 641.2,463.5 644.3,461.5 646.9,459.2 Z"/><path d="M516.5,454.8 C 516.9,463.5 517.4,472.1 517.8,480.7 518.2,489.3 518.6,497.9 519.2,506.6 519.7,515.2 520.3,523.8 521,532.4 521.6,541 522.4,549.6 523.1,558.2 523.7,566.8 524.3,575.4 524.8,584 525.4,592.6 525.9,601.3 526.4,609.9"/><path d="M520,679.7 C 514.4,680 508.7,678.4 503.1,677.8 497.4,677.2 491.7,676.4 486.1,676.1 480.4,675.7 474.7,675.9 469,675.9 463.3,675.8 457.6,675.7 451.9,675.5 446.2,675.4 440.5,675.2 434.8,675 429.1,674.9 423.2,674.4 417.7,674.6 412.6,674.9 404.1,673.9 403.1,676.3 401.9,678.9 409.4,685.8 412.9,690.3 416.3,694.8 420.1,699 424,703.2 427.9,707.3 431.8,711.5 436.1,715.2 440.4,718.9 445.1,722.3 449.8,725.4 454.5,728.6 459.3,731.7 464.3,734.2 469.4,736.6 474.9,738.6 480.3,740.2 485.7,741.8 491.3,742.8 496.9,743.6 502.5,744.5 508.3,745.3 513.9,745.3 519.6,745.2 525.2,744.2 530.8,743.2 536.4,742.3 542.2,741.6 547.5,739.7 552.8,737.8 557.9,735 562.7,731.9 567.4,728.9 571.8,725.3 575.9,721.5 580,717.6 584,713.4 587.5,708.9 590.9,704.4 593.7,699.4 596.6,694.5 599.4,689.5 603.3,684.1 604.5,679.3 605.5,675.5 606.5,670.3 604.5,668.3 602,665.8 593.1,668.2 587.4,668.6 581.7,668.9 576.1,669.7 570.4,670.4 564.8,671.1 559.1,671.8 553.5,672.8 547.9,673.7 542.3,674.9 536.7,676.1 531.2,677.2 525.7,679.4 520,679.7 Z"/></svg>
